<?xml version="1.0" encoding="UTF-8"?>
<svg width="27px" height="26px" viewBox="0 0 27 26" version="1.1" xmlns="http://www.w3.org/2000/svg" xmlns:xlink="http://www.w3.org/1999/xlink">
    <title>Cars</title>
    <g id="Page-1" stroke="none" stroke-width="1" fill="none" fill-rule="evenodd">
        <g id="Cars" transform="translate(1.000000, 2.000000)" fill="#C6C6C6">
            <g id="car-copy" transform="translate(0.149546, 6.115228)">
                <path d="M13.351438,0.0428918993 C14.5297232,0.0428918993 15.1549244,0.686323103 15.4434864,1.43910099 L16.9764385,5.39231743 C17.583662,5.47015979 18.6600466,6.18359798 18.6600466,7.53352002 L18.6600466,12.5616999 L17.1693171,12.5616999 L17.1693171,14.1691806 C17.1693171,16.1476451 14.3684063,16.1243437 14.3684063,14.1691806 L14.3684063,12.5616999 L4.29183729,12.5616999 L4.29183729,14.1691806 C4.29183729,16.1243437 1.49092641,16.1476451 1.49092641,14.1691806 L1.49092641,12.5616999 L0.000145105454,12.5616999 L0.000145105454,7.53352002 C0.000145105454,6.18359798 1.07543278,5.47015979 1.68265647,5.39231743 L3.21560915,1.43910099 C3.50417101,0.686323103 4.12942318,0.0428918993 5.30770917,0.0428918993 L13.351438,0.0428918993 Z M2.93593083,6.96975912 C2.22147619,6.96975912 1.64215762,7.56664258 1.64215762,8.30285759 C1.64215762,9.03912678 2.22147614,9.63606128 2.93593083,9.63606128 C3.65043752,9.63606128 4.22965162,9.03912683 4.22965162,8.30285759 C4.22965162,7.56664258 3.65043757,6.96975912 2.93593083,6.96975912 Z M15.7232168,6.96975912 C15.0087623,6.96975912 14.4294422,7.56664258 14.4294422,8.30285759 C14.4294422,9.03912683 15.0087623,9.63606128 15.7232168,9.63606128 C16.4377223,9.63606128 17.0169372,9.03912678 17.0169372,8.30285759 C17.0169372,7.56664258 16.4377223,6.96975912 15.7232168,6.96975912 Z M13.3695185,1.58747245 L5.28973274,1.58747245 C4.78472315,1.59217416 4.56822348,1.90783009 4.42394242,2.34495127 L4.42394242,2.34495127 L3.26974712,5.45657757 L15.3893479,5.45657757 L14.2352048,2.34495127 C14.0909229,1.90783009 13.8744754,1.59217416 13.3695185,1.58747245 L13.3695185,1.58747245 Z" id="car"></path>
            </g>
            <g id="car" opacity="0.5" transform="translate(7.142383, 0.211708)">
                <path d="M13.351438,0.0428918993 C14.5297232,0.0428918993 15.1549244,0.686323103 15.4434864,1.43910099 L16.9764385,5.39231743 C17.583662,5.47015979 18.6600466,6.18359798 18.6600466,7.53352002 L18.6600466,12.5616999 L17.1693171,12.5616999 L17.1693171,14.1691806 C17.1693171,16.1476451 14.3684063,16.1243437 14.3684063,14.1691806 L14.3684063,12.5616999 L4.29183729,12.5616999 L4.29183729,14.1691806 C4.29183729,16.1243437 1.49092641,16.1476451 1.49092641,14.1691806 L1.49092641,12.5616999 L0.000145105454,12.5616999 L0.000145105454,12.3808919 L9.3295475,12.3817205 L9.3295475,7.46147549 L3.93886718,7.46072086 C3.70163578,7.16109357 3.34046774,6.96975912 2.93593083,6.96975912 C2.53142342,6.96975912 2.17023467,7.16109357 1.93297976,7.46072086 L0.00314510545,7.4608919 L0.00801684409,7.33580523 C0.106503713,6.11384315 1.10579397,5.46626767 1.68265647,5.39231743 L3.21560915,1.43910099 C3.50417101,0.686323103 4.12942318,0.0428918993 5.30770917,0.0428918993 L13.351438,0.0428918993 Z M15.7232168,7.91014296 C15.0087623,7.91014296 14.4294422,8.50702642 14.4294422,9.24324143 C14.4294422,9.97951067 15.0087623,10.5764451 15.7232168,10.5764451 C16.4377223,10.5764451 17.0169372,9.97951061 17.0169372,9.24324143 C17.0169372,8.50702642 16.4377223,7.91014296 15.7232168,7.91014296 Z M13.3695185,1.58747245 L5.28973274,1.58747245 C4.78472315,1.59217416 4.56822348,1.90783009 4.42394242,2.34495127 L4.42394242,2.34495127 L3.26974712,5.45657757 L15.3893479,5.45657757 L14.2352048,2.34495127 C14.0909229,1.90783009 13.8744754,1.59217416 13.3695185,1.58747245 L13.3695185,1.58747245 Z"></path>
            </g>
        </g>
    </g>
</svg>