<?xml version="1.0" encoding="UTF-8"?>
<svg width="208px" height="202px" viewBox="0 0 208 202" version="1.1" xmlns="http://www.w3.org/2000/svg" xmlns:xlink="http://www.w3.org/1999/xlink">
    <title>Pumps</title>
    <g id="Page-1" stroke="none" stroke-width="1" fill="none" fill-rule="evenodd">
        <g id="Pumps">
            <path d="M200,175.826772 L200,163.838583 L208,163.838583 L208,7.99212598 C208,3.57819668 204.418278,0 200,0 L120,0 C115.581722,0 112,3.57819668 112,7.99212598 L112,15.984252 L108,15.984252 C104.770393,15.984252 101.857541,17.9242424 100.615384,20.902484 L96,31.9685039 C96,57.5480689 150.973568,14.9200298 138.6375,37.3350917 L138.6375,118.089905 C138.6375,126.65584 104.574374,159.555615 112,163.838583 C119.425626,168.12155 131.211875,122.372873 138.6375,118.089905 C146.063126,113.806938 112,163.838583 112,163.838583 L120,163.838583 L120,175.826772 L200,175.826772 Z M184,15.984252 C188.418278,15.984252 192,19.5624487 192,23.976378 L192,23.976378 L192,59.9409449 C192,64.3548742 188.418278,67.9330709 184,67.9330709 L184,67.9330709 L136,67.9330709 L136,67.9330709 L136,49.5511811 C136,45.1372518 132.418278,41.5590551 128,41.5590551 L128,23.976378 C128,19.5624487 131.581722,15.984252 136,15.984252 L136,15.984252 Z" id="Shape" fill="#E4E4EA"></path>
            <path d="M64,201.401575 L144,201.401575 L144,189.413386 L152,189.413386 L152,33.5669291 C152,29.1529998 148.418278,25.5748031 144,25.5748031 L64,25.5748031 C59.581722,25.5748031 56,29.1529998 56,33.5669291 L56,41.5590551 L52,41.5590551 C48.7703929,41.5590551 45.8575407,43.4990455 44.6153843,46.4772871 L40,57.5433071 C40,83.122872 33.53182,108.287933 21.1957524,130.702994 L3.95878896,162.023157 C1.36172211,166.742118 1.25055521e-13,172.040025 0,177.425197 L0,177.425197 C-2.38742359e-13,185.991132 4.57437416,193.906382 12,198.189349 C19.4256258,202.472317 28.5743742,202.472317 36,198.189349 C43.4256258,193.906382 48,185.991132 48,177.425197 L48,79.5216535 L56,79.5216535 L56,189.413386 L64,189.413386 L64,201.401575 L64,201.401575 Z M40.000002,107.454112 C36.9147096,116.831675 32.966527,125.903562 28.2060552,134.553504 L10.9690917,165.873667 C9.02129158,169.412888 8,173.386318 8,177.425197 C8,183.13582 11.0495828,188.412654 16,191.267965 C20.9504172,194.123277 27.0495828,194.123277 32,191.267965 C36.9504172,188.412654 40,183.13582 40,177.425197 L40,107.454134 L40.000002,107.454112 Z M80,93.507874 L128,93.507874 C132.418278,93.507874 136,89.9296773 136,85.515748 L136,49.5511811 C136,45.1372518 132.418278,41.5590551 128,41.5590551 L80,41.5590551 C75.581722,41.5590551 72,45.1372518 72,49.5511811 L72,85.515748 C72,89.9296773 75.581722,93.507874 80,93.507874 L80,93.507874 Z" id="Shape" fill="#D9D9DF"></path>
        </g>
    </g>
</svg>