<?xml version="1.0" encoding="UTF-8"?>
<svg width="27px" height="26px" viewBox="0 0 27 26" version="1.1" xmlns="http://www.w3.org/2000/svg" xmlns:xlink="http://www.w3.org/1999/xlink">
    <title>Zapfhahn</title>
    <g id="Page-1" stroke="none" stroke-width="1" fill="none" fill-rule="evenodd">
        <g id="Zapfhahn" fill="#C6C6C6">
            <path d="M0.519230769,24.96 C1.39101923,24.56012 1.8495,23.84876 2.26644231,22.99336 C2.94715385,21.59872 3.77117308,20.26336 5.12273077,19.08816 C5.69388462,20.02312 6.99559615,19.41212 7.72096154,20.52544 C6.73390385,22.13068 5.70323077,23.80508 4.67307692,25.48 C3.375,25.48 2.07692308,25.46752 0.778846154,25.48624 C0.257019231,25.49352 0.632423077,25.12016 0.519230769,24.96" id="Fill-2"></path>
            <path d="M16.6304423,13.22464 C15.1293462,11.19976 13.1126538,12.11808 11.3254615,12.00888 C10.8114231,11.97716 10.3555385,12.57048 10.3752692,13.28912 C10.4090192,14.49708 10.3846154,15.70712 10.3846154,16.72424 L7.88192308,19.23064 C7.79573077,19.21972 7.61555769,19.23584 7.46965385,19.17292 C5.15907692,18.1766 4.88751923,17.70392 5.19126923,15.2802 C5.31121154,14.32392 6.11134615,13.74256 6.58748077,13.02132 C7.04492308,12.32816 7.29207692,11.7364 7.27494231,10.95016 C7.25209615,9.91224 7.40371154,8.85144 7.23755769,7.84056 C6.99248077,6.35024 8.14153846,5.5796 8.74748077,4.56196 C9.25165385,3.7154 10.1727692,3.04824 11.2273269,3.16316 C12.0046154,3.24844 12.4558269,2.7196 13.0737115,2.59324 C14.6563269,3.43148 15.09975,5.2754 16.4326154,6.31696 C16.9129038,6.6924 16.5722885,7.25556 16.7477885,7.74124 C17.1855,8.95232 17.3646346,10.25596 17.6554038,11.52112 C17.8236346,12.25328 17.2810385,12.59128 16.6304423,13.22464" id="Fill-3"></path>
            <path d="M17.0151923,4.53284 C16.3661538,3.89584 15.7731923,3.31344 15.1184423,2.67072 C18.7089231,0.34684 22.7521731,0.39104 26.8354038,0.55848 C27.4091538,1.48252 26.0669423,1.79764 26.2813846,2.6 C25.0596346,2.6 23.8399615,2.72896 22.6607885,2.56672 C21.2661346,2.37432 20.0739808,3.12104 18.7338462,3.1564 C17.9368269,3.1772 17.5868654,4.08928 17.0151923,4.53284" id="Fill-4"></path>
            <path d="M13.4444423,19.695 L9.96351923,19.695 C10.2916731,18.60924 10.80675,17.90048 11.8644231,17.38984 C12.5674615,17.0508 12.9496154,16.02588 13.4278269,15.27708 C13.4641731,15.21988 13.1235577,14.92088 12.9387115,14.71288 C13.1074615,13.87308 13.8432115,13.52468 14.3541346,12.9766 C15.1163654,13.28808 15.9216923,13.48672 16.5650192,14.274 C15.5275962,16.0758 14.4626538,17.92596 13.4444423,19.695" id="Fill-5"></path>
        </g>
    </g>
</svg>